<?xml version="1.0" encoding="utf-8"?>
<!-- Generator: Adobe Illustrator 22.0.1, SVG Export Plug-In . SVG Version: 6.00 Build 0)  -->
<svg version="1.1" xmlns="http://www.w3.org/2000/svg" xmlns:xlink="http://www.w3.org/1999/xlink" x="0px" y="0px"
	 viewBox="0 0 500 500" style="enable-background:new 0 0 500 500;" xml:space="preserve">
<style type="text/css">
	.st0{display:none;}
	.st1{display:inline;}
	.st2{fill:none;stroke:#0071BC;stroke-width:2;stroke-miterlimit:10;}
	.st3{fill:#D9EFF8;stroke:#FFFFFF;stroke-width:10;stroke-miterlimit:10;}
	.st4{font-family:'Broadway';}
	.st5{font-size:68.2258px;}
	.st6{fill:#D9EFF8;stroke:#FFFFFF;stroke-width:3;stroke-miterlimit:10;}
	.st7{fill:url(#SVGID_1_);}
	.st8{fill:url(#SVGID_2_);}
	.st9{fill:url(#SVGID_3_);}
	.st10{fill:url(#SVGID_4_);}
	.st11{fill:url(#SVGID_5_);}
	.st12{display:inline;fill:none;stroke:#0071BC;stroke-miterlimit:10;}
	.st13{fill:url(#SVGID_6_);}
	.st14{fill:url(#SVGID_7_);}
	.st15{fill:url(#SVGID_8_);}
	.st16{fill:url(#SVGID_9_);}
	.st17{fill:url(#SVGID_10_);}
	.st18{fill:url(#SVGID_11_);}
	.st19{fill:url(#SVGID_12_);}
	.st20{fill:#FFFFFF;stroke:#000000;stroke-width:2;stroke-miterlimit:10;}
	.st21{fill:#FF7BAC;}
	.st22{fill:#CD496E;}
	.st23{fill:#CF4A6F;}
	.st24{fill:#EFB9DD;}
</style>
<g id="Camada_1" class="st0">
	<g class="st1">
		<circle class="st2" cx="251.9" cy="143.1" r="106"/>
		<circle class="st2" cx="250" cy="250" r="244"/>
		<path class="st2" d="M388.4,420.1H113.5c-1.4,0-2.5-1.1-2.5-2.5V258.1c0-5,4-9,9-9h261.9c5,0,9,4,9,9v159.5
			C391,419,389.8,420.1,388.4,420.1z"/>
	</g>
</g>
<g id="Camada_2">
	<g class="st0">
		<text transform="matrix(1 0 0 1 148.1968 237.3208)" class="st1"><tspan x="0" y="0" class="st3 st4 st5">Coral</tspan><tspan x="198" y="0" class="st6 st4 st5"> </tspan></text>
		<g class="st1">
			<linearGradient id="SVGID_1_" gradientUnits="userSpaceOnUse" x1="173.0485" y1="238.6868" x2="173.0485" y2="190.4819">
				<stop  offset="0" style="stop-color:#F7931E"/>
				<stop  offset="1" style="stop-color:#FCEE21"/>
			</linearGradient>
			<path class="st7" d="M171.6,192.7l-0.2,23.6l0.2,20.1c1.2,0.2,2.1,0.2,2.9,0.2c2.2,0,4.4-0.4,6.7-1.2c2.3-0.8,4.3-1.8,6.1-3.2
				c1.1-0.9,2.3-2,3.5-3.5c1.2-1.4,2.2-2.9,2.9-4.2c0.4-0.8,0.9-1.2,1.4-1.2c0.7,0,1.1,0.3,1.1,0.9c0,0.7-0.5,1.8-1.6,3.4
				c-1.1,1.6-2.3,3-3.6,4.3c-2.8,2.7-6.2,4.6-10,5.7c-2.3,0.6-4.5,1-6.7,1c-3.1,0-6.2-0.7-9.4-2c-5-2.1-8.8-5.5-11.5-10
				c-2.2-3.8-3.3-7.8-3.3-12.1c0-4.4,1.1-8.5,3.4-12.3c2.4-4.1,5.8-7.3,10.3-9.4c3.2-1.6,6.7-2.3,10.4-2.3c6.4,0,11.9,2.2,16.6,6.5
				c2.2,2.1,3.3,3.6,3.3,4.5c0,0.2-0.1,0.5-0.3,0.7c-0.2,0.2-0.5,0.3-0.7,0.3c-0.4,0-1-0.4-1.6-1.3c-1.9-2.6-4.4-4.7-7.6-6.3
				c-3.1-1.5-6.4-2.3-9.9-2.3C173.1,192.5,172.3,192.6,171.6,192.7z"/>
			<linearGradient id="SVGID_2_" gradientUnits="userSpaceOnUse" x1="216.9223" y1="238.6868" x2="216.9223" y2="190.4819">
				<stop  offset="0" style="stop-color:#F7931E"/>
				<stop  offset="1" style="stop-color:#FCEE21"/>
			</linearGradient>
			<path class="st8" d="M216.9,200c3.6,0,7,1,10.2,3c3,1.8,5.2,4.3,6.8,7.5c1.4,2.8,2.1,5.7,2.1,8.8c0,2.1-0.4,4.3-1.2,6.4
				c-0.8,2.2-1.9,4.1-3.3,5.7c-2,2.3-4.3,4-7.2,5.2c-2.3,1-4.7,1.4-7.2,1.4c-4.2,0-8-1.2-11.3-3.7c-2.6-1.9-4.6-4.4-6-7.4
				c-1.1-2.5-1.7-5.2-1.7-8c0-5.5,2-10.1,6-13.7C207.7,201.8,212,200.1,216.9,200z M215.9,202.2l-0.1,33.6c0.7,0,1.2,0.1,1.4,0.1
				c3.1,0,6-0.9,8.9-2.6c2.7-1.7,4.7-3.9,6.1-6.7c1.1-2.2,1.6-4.7,1.6-7.3c0-5.4-2-9.7-5.9-13c-3.2-2.7-6.7-4-10.4-4
				C217.1,202.1,216.6,202.1,215.9,202.2z"/>
			<linearGradient id="SVGID_3_" gradientUnits="userSpaceOnUse" x1="257.7144" y1="238.6868" x2="257.7144" y2="190.4819">
				<stop  offset="0" style="stop-color:#F7931E"/>
				<stop  offset="1" style="stop-color:#FCEE21"/>
			</linearGradient>
			<path class="st9" d="M258.2,211.3l-0.1,12.8l0.1,13.3h-17.1l0-1.8l0-6.8l0.1-12.2l-0.2-13.6l0-1.9h17.1v6.9
				c2.5-2.7,4.3-4.4,5.3-5.1c2.3-1.6,4.5-2.4,6.5-2.4c1.2,0,2.3,0.3,3.1,0.8c0.8,0.5,1.2,1.2,1.2,2c0,0.6-0.2,1.2-0.7,1.6
				c-0.5,0.4-1.1,0.6-1.8,0.6c-0.5,0-1-0.1-1.6-0.4c-1-0.5-1.8-0.7-2.4-0.7c-1.6,0-3.1,0.5-4.6,1.6
				C261.7,206.9,260,208.7,258.2,211.3z"/>
			<linearGradient id="SVGID_4_" gradientUnits="userSpaceOnUse" x1="295.5257" y1="238.6868" x2="295.5257" y2="190.4819">
				<stop  offset="0" style="stop-color:#F7931E"/>
				<stop  offset="1" style="stop-color:#FCEE21"/>
			</linearGradient>
			<path class="st10" d="M299.2,215.1v-4.1c0-2.8-0.1-4.6-0.1-5.2c-0.1-0.6-0.3-1.2-0.6-1.7c-0.8-1.2-2.7-1.9-5.6-1.9
				c-4.5,0-8,1.4-10.5,4.3c-1,1.2-1.8,1.7-2.5,1.7c-0.5,0-1-0.2-1.3-0.5c-0.4-0.4-0.6-0.8-0.6-1.2c0-1.4,1.7-2.8,5-4.3
				c3.2-1.4,7.2-2.1,12.2-2.1c8.2,0,14,1.2,17.4,3.7c1.5,1.1,2.4,2.3,2.9,3.7c0.4,1.4,0.7,3.7,0.7,7.2v13.2c-0.1,2.4,0,4.3,0.2,5.5
				c0.2,1.2,0.8,2.6,1.6,4h-18.7v-3.5c-2,1.4-4.1,2.5-6.1,3.2c-2,0.7-4,1.1-5.9,1.1c-3.3,0-6.3-1-8.8-2.9c-3.4-2.5-5-5.8-5-9.9
				c0-3.6,1.4-6.5,4.1-8.7c3.2-2.6,7.1-3.9,11.7-3.9c1.9,0,3.6,0.2,5.1,0.5C295.6,213.6,297.3,214.2,299.2,215.1z M299.2,217.5
				c-2.8-1.4-5-2.1-6.5-2.1c-1.3,0-2.1,0.5-2.5,1.5c-0.2,0.6-0.3,2.2-0.3,4.8v8c0,1.8,0.1,2.8,0.2,3.2c0.2,1,1,1.5,2.3,1.5
				c1,0,2.2-0.3,3.4-0.9c1.3-0.6,2.4-1.4,3.4-2.4L299.2,217.5z"/>
			<linearGradient id="SVGID_5_" gradientUnits="userSpaceOnUse" x1="332.0869" y1="238.6868" x2="332.0869" y2="190.4819">
				<stop  offset="0" style="stop-color:#F7931E"/>
				<stop  offset="1" style="stop-color:#FCEE21"/>
			</linearGradient>
			<path class="st11" d="M340.6,191.8l0,1.7l-0.1,11.7l0,5.1l-0.1,9.2l0.1,16.5v1.3h-17v-1.6l0.1-5.3l0-9.6l0.1-12.6l0-6.8l-0.1-7.4
				l0-2.3H340.6z"/>
		</g>
		<text transform="matrix(1 0 0 1 148.1968 237.3208)" class="st12 st4 st5">Coral </text>
	</g>
	<g class="st0">
		<text transform="matrix(1 0 0 1 203.3169 308.1865)" class="st1"><tspan x="0" y="0" class="st3 st4 st5">Viagens</tspan><tspan x="289.9" y="0" class="st6 st4 st5"> </tspan></text>
		<g class="st1">
			<linearGradient id="SVGID_6_" gradientUnits="userSpaceOnUse" x1="230.2169" y1="311.6838" x2="230.2169" y2="260.1482">
				<stop  offset="0" style="stop-color:#F7931E"/>
				<stop  offset="1" style="stop-color:#FCEE21"/>
			</linearGradient>
			<path class="st13" d="M241.1,289.3l6-11.1c3-5.5,5.3-10,7.1-13.6c0.5-1,0.8-1.6,1.1-1.9c0.3-0.3,0.6-0.5,1-0.5
				c0.4,0,0.7,0.1,1,0.4c0.3,0.3,0.4,0.6,0.4,0.9c0,0.4-0.2,1-0.7,1.8c-0.1,0.2-0.2,0.4-0.3,0.6c-0.2,0.4-0.5,0.9-0.9,1.5
				l-24.6,44.4l-28.5-49h23.4L241.1,289.3z"/>
			<linearGradient id="SVGID_7_" gradientUnits="userSpaceOnUse" x1="269.2102" y1="311.6838" x2="269.2102" y2="260.1482">
				<stop  offset="0" style="stop-color:#F7931E"/>
				<stop  offset="1" style="stop-color:#FCEE21"/>
			</linearGradient>
			<path class="st14" d="M277.7,271.8v1l-0.1,5.2l-0.1,8.1l-0.1,12.3l0.1,6.9l0.1,3h-17.1l0.2-12.3l0.1-10.8l-0.1-5.7l-0.1-6.3
				l0-1.3H277.7z M269.1,260.1c5.9,0,8.8,1.5,8.8,4.6c0,1.5-0.8,2.6-2.3,3.5c-1.5,0.8-3.7,1.2-6.5,1.2c-5.6,0-8.4-1.6-8.4-4.7
				C260.7,261.7,263.5,260.2,269.1,260.1z"/>
			<linearGradient id="SVGID_8_" gradientUnits="userSpaceOnUse" x1="305.6052" y1="311.6838" x2="305.6052" y2="260.1482">
				<stop  offset="0" style="stop-color:#F7931E"/>
				<stop  offset="1" style="stop-color:#FCEE21"/>
			</linearGradient>
			<path class="st15" d="M309.3,286v-4.1c0-2.8-0.1-4.6-0.1-5.2c-0.1-0.6-0.3-1.2-0.6-1.7c-0.8-1.2-2.7-1.9-5.6-1.9
				c-4.5,0-8,1.4-10.5,4.3c-1,1.2-1.8,1.7-2.5,1.7c-0.5,0-1-0.2-1.3-0.5c-0.4-0.4-0.6-0.8-0.6-1.2c0-1.4,1.7-2.8,5-4.3
				c3.2-1.4,7.2-2.1,12.2-2.1c8.2,0,14,1.2,17.4,3.7c1.5,1.1,2.4,2.3,2.9,3.7c0.4,1.4,0.7,3.7,0.7,7.2v13.2c-0.1,2.4,0,4.3,0.2,5.5
				c0.2,1.2,0.8,2.6,1.6,4h-18.7v-3.5c-2,1.4-4.1,2.5-6.1,3.2c-2,0.7-4,1.1-5.9,1.1c-3.3,0-6.3-1-8.8-2.9c-3.4-2.5-5-5.8-5-9.9
				c0-3.6,1.4-6.5,4.1-8.7c3.2-2.6,7.1-3.9,11.7-3.9c1.9,0,3.6,0.2,5.1,0.5C305.7,284.5,307.4,285.1,309.3,286z M309.3,288.4
				c-2.8-1.4-5-2.1-6.5-2.1c-1.3,0-2.1,0.5-2.5,1.5c-0.2,0.6-0.3,2.2-0.3,4.8v8c0,1.8,0.1,2.8,0.2,3.2c0.2,1,1,1.5,2.3,1.5
				c1,0,2.2-0.3,3.4-0.9c1.3-0.6,2.4-1.4,3.4-2.4L309.3,288.4z"/>
			<linearGradient id="SVGID_9_" gradientUnits="userSpaceOnUse" x1="349.3458" y1="311.6838" x2="349.3458" y2="260.1482">
				<stop  offset="0" style="stop-color:#F7931E"/>
				<stop  offset="1" style="stop-color:#FCEE21"/>
			</linearGradient>
			<path class="st16" d="M359.5,273.2c1.9,0.9,3.5,2.2,4.8,3.7c1.7,2.1,2.6,4.5,2.6,7.2c0,1.9-0.5,3.8-1.5,5.5
				c-1,1.7-2.3,3.2-4.1,4.4c-3.2,2.2-7.2,3.3-11.7,3.3c-2.1,0-4.1-0.2-5.8-0.6c-1.8-0.4-3.4-0.9-4.9-1.7c-1,0.7-1.6,1.4-1.6,2.2
				c0,0.9,0.6,1.4,1.8,1.5c2.6,0.3,4.3,0.4,5.3,0.3l0.2,0h10l0.5,0c3.3-0.2,5.7,0.4,7.2,1.7c1.1,1,1.7,2.3,1.7,3.7
				c0,1.2-0.4,2.2-1.2,3.2c-1.3,1.6-3.1,2.4-5.4,2.4c-0.4,0-1,0-1.6-0.1c0.4-0.6,0.5-1,0.5-1.3c0-0.7-0.6-1-1.9-1
				c-1.1,0-3.3,0.2-6.7,0.7c-2.4,0.3-4.3,0.5-5.9,0.5c-2.4,0-4.6-0.5-6.4-1.6c-1-0.6-1.9-1.4-2.5-2.5c-0.6-1-0.9-2.2-0.9-3.4
				c0-1.4,0.4-2.6,1.1-3.8c0.7-1.1,1.9-2.3,3.6-3.6c-1.6-1-2.8-2.3-3.7-3.9c-0.9-1.6-1.3-3.4-1.3-5.2c0-4.5,2.3-8.1,6.8-10.7
				c3.4-2,7.5-3,12.3-3c1.1,0,2.2,0.1,3.3,0.2c1.6,0.1,2.7,0.2,3.4,0.2c1.8,0,3-0.8,3.8-2.3c0.5-0.9,1-1.4,1.5-1.4
				c0.4,0,0.8,0.1,1.1,0.4c0.3,0.3,0.5,0.6,0.5,1c0,0.8-0.4,1.6-1.3,2.3S361.1,272.7,359.5,273.2z M346.4,276.9V291
				c0,1.7,0.1,2.7,0.4,3.1c0.4,0.6,1.4,1,2.8,1c1.3,0,2.1-0.3,2.6-0.9c0.4-0.6,0.6-1.8,0.6-3.6V277c0-1.5-0.2-2.5-0.6-3
				c-0.4-0.5-1.3-0.8-2.5-0.8c-1.3,0-2.1,0.3-2.5,0.8C346.6,274.5,346.4,275.4,346.4,276.9z"/>
			<linearGradient id="SVGID_10_" gradientUnits="userSpaceOnUse" x1="388.3889" y1="311.6838" x2="388.3889" y2="260.1482">
				<stop  offset="0" style="stop-color:#F7931E"/>
				<stop  offset="1" style="stop-color:#FCEE21"/>
			</linearGradient>
			<path class="st17" d="M385,291.1v10.3c0,2,0.1,3.3,0.4,3.8c0.5,1,1.6,1.5,3.3,1.5c2.6,0,5.1-0.7,7.6-2.1c2.5-1.4,4.7-3.4,6.5-5.8
				c0.6-0.8,1-1.3,1.3-1.6c0.3-0.2,0.6-0.3,0.9-0.3c0.4,0,0.7,0.1,0.9,0.4c0.2,0.3,0.4,0.6,0.4,1c0,0.9-0.7,2.2-2.2,3.8
				c-2,2-4.4,3.7-7.3,4.9c-2.9,1.3-5.7,1.9-8.5,1.9c-4.7,0-8.9-1.6-12.5-4.8c-2.1-1.9-3.7-4.2-4.9-6.9c-1-2.4-1.5-4.8-1.5-7.2
				c0-2.3,0.4-4.6,1.3-6.9c0.9-2.3,2.1-4.3,3.7-6c1.8-2,3.9-3.5,6.4-4.6c2.4-1.1,5-1.6,7.6-1.6c4.1,0,7.8,1.2,11.2,3.6
				c5.2,3.8,7.8,9.3,7.7,16.4h-7.8l-10,0L385,291.1z M393.5,288.9v-9.7c0-2.1-0.1-3.3-0.1-3.7c0-0.4-0.2-0.8-0.5-1.1
				c-0.6-0.9-1.9-1.3-3.8-1.3c-2,0-3.2,0.5-3.7,1.5c-0.3,0.6-0.5,2.2-0.5,4.7v9.7l4.1,0.1L393.5,288.9z"/>
			<linearGradient id="SVGID_11_" gradientUnits="userSpaceOnUse" x1="434.6284" y1="311.6838" x2="434.6284" y2="260.1482">
				<stop  offset="0" style="stop-color:#F7931E"/>
				<stop  offset="1" style="stop-color:#FCEE21"/>
			</linearGradient>
			<path class="st18" d="M429.6,271.8v4.6c2.6-1.8,5.1-3.2,7.6-4.1c2.5-0.9,4.9-1.4,7.3-1.4c3.2,0,5.8,0.7,8,2.2
				c1.6,1.1,2.7,2.4,3.3,4c0.6,1.6,0.8,4.2,0.8,7.9l-0.1,15.4l0.1,7.8h-16.9l0.1-9.3l0.1-6.8l0-10.3c0-2.4,0-3.8-0.1-4.2
				c0-0.5-0.1-0.9-0.3-1.2c-0.4-0.7-1.1-1.1-2.3-1.1c-1.1,0-2.3,0.3-3.5,0.9c-1.3,0.6-2.6,1.6-4.1,2.8l0,1.4l-0.1,9.4l-0.1,7.2
				l0.1,9.8l0,1.4h-17l0.1-13.1l0.1-8.6l-0.1-7.5l-0.1-7.2H429.6z"/>
			<linearGradient id="SVGID_12_" gradientUnits="userSpaceOnUse" x1="476.6695" y1="311.6838" x2="476.6695" y2="260.1482">
				<stop  offset="0" style="stop-color:#F7931E"/>
				<stop  offset="1" style="stop-color:#FCEE21"/>
			</linearGradient>
			<path class="st19" d="M463.4,302c0.4,0,1,0.3,1.7,1c1.1,1.1,2.7,2,4.7,2.7c2,0.7,4,1.1,5.7,1.1c0.8,0,1.4-0.1,1.8-0.4
				s0.6-0.7,0.6-1.2c0-0.5-0.3-1.2-0.8-1.9c-0.6-0.7-1.8-2.2-3.8-4.3c-4.8-5.1-7.9-8.7-9.3-10.8s-2.1-4.1-2.1-6
				c0-1.7,0.5-3.3,1.4-4.8c1-1.5,2.3-2.8,4-3.9c2.9-1.8,6.2-2.7,9.9-2.7c2.7,0,5.6,0.6,8.7,1.7c2.4,0.9,3.6,1.9,3.6,3
				c0,0.3-0.1,0.6-0.4,0.9c-0.3,0.3-0.6,0.4-0.9,0.4c-0.4,0-1.2-0.4-2.4-1.2c-2.4-1.7-4.9-2.5-7.7-2.5c-1,0-1.7,0.2-2.2,0.5
				c-0.5,0.3-0.7,0.8-0.7,1.4c0,0.8,0.5,1.7,1.4,2.9c0.9,1.2,2.8,3.1,5.6,5.9c2.8,2.7,4.5,4.4,5.2,5.3c0.7,0.8,1.5,1.8,2.1,2.9
				c1.2,1.9,1.8,3.9,1.8,6.1c0,3.4-1.7,6.2-5,8.3c-2.7,1.8-6,2.6-10,2.6c-4.4,0-8.3-1-11.7-2.9c-1-0.6-1.7-1.1-2-1.5
				c-0.4-0.4-0.5-0.8-0.5-1.2C462.1,302.5,462.5,302,463.4,302z"/>
		</g>
		<text transform="matrix(1 0 0 1 203.3169 308.1865)" class="st12 st4 st5">Viagens </text>
	</g>
	<path class="st20" d="M-19.1,269.5"/>
	<path class="st20" d="M-2.2,258.1"/>
	<path class="st21" d="M376.2,198.9c0,0,21.6-33.3,19.2-66.6s-18-31.4-3.6-70.5c14.4-39.1-7.3-65.1-19.2-44.4
		c-7.8,13.5,15,18.4-24,52.6c-29.8,26.2-30,60.4-39,76.8s-14.4,23.2-14.4,23.2L376.2,198.9z"/>
	<path class="st21" d="M204.6,333.1c0,0-33.1,22-44.1,53.5c-11,31.5,4,36-24.7,66.1c-28.8,30.2-26.9,46.9-7.7,32.7
		c12.5-9.3,1.2-7.1,50.6-23.1c37.7-12.2,51.5-43.5,66.3-55c14.8-11.5,22.4-15.5,22.4-15.5L204.6,333.1z"/>
	<path class="st22" d="M387.8,177.9c42.8,26.3-6.9,44.3-22.6,50.1c-13.3,4.9-7,2.6-10.5,44.2v28l-152.9-73.5c0,0-1.7-11.2,18.7-14.2
		s16.1-3.6,24-3.3c6.8,0.3,14.8,10.5,20-4c5.2-14.5,1.7-44.5,13.5-53.7s30.5,7.6,39.6,12.9c9.1,5.3,16.1,11.9,32.2,9.9
		C366,172.3,384.6,176,387.8,177.9z"/>
	<path class="st23" d="M250.7,375.7c25.1,19.4,27.7,36.7,18.2,41.4c-8,4-8.9-4.3-18,20.4c-2.3,6.4-14.1,15.8-20.4,18
		c-6.4,2.3-22.2,2.6-28.2-0.6c-10.3-5.5-28.4-20.2-39.5-23.8c-8-2.6-24-16-24-16s-15.7-16.4-5.4-24.4c11.9-9.3,10-15.3,15-15.6
		c4.3-0.3,18.9,17,21.2,7.5c2.3-9.5,3.7-23.1,10.5-29.7c6.7-6.6,21.2,5.7,41.7,8.8C231.9,363.2,238.6,366.3,250.7,375.7z"/>
	<path class="st21" d="M97.4,363.9c0,0,35.1,29.4,52.8,35.2c24.5,8,91.2,11.2,113.9,23.4c13.3,7.1,23,15.8,37.2,10.8
		c13.8-4.9,14.4-29.6,14.4-29.6c-0.4-15.5,0.1-24.8,1.5-30.3c1.6-6.4,4.3-7.5,7.9-7.1c4.7,0.5,11,3.3,18.4-0.3
		c20.8-10.4,55.7-46.3,0.3-89c-26.8-20.6-41.5-27.4-63.8-30.8c-45.2-6.8-77.1-33.9-91.9-19.3c-14.9,14.5-18,44.6-23,65.5
		c-5,20.9-18.1,30.9-27.6,31.6c-10.9,0.7-8.4-7.5-34.7,13C80.1,354.6,97.4,363.9,97.4,363.9z"/>
	<path class="st24" d="M154.2,347.5c-9.7,16.8-4.4,24.4-1,26.4c3.4,2,3.7-2.4,13.4-19.2c9.7-16.8,8-19.6,4.6-21.6
		C167.8,331.2,163.9,330.7,154.2,347.5z"/>
	<path class="st24" d="M171.5,359.1c-6.8,11.8-3.1,17.2-0.7,18.6s2.6-1.7,9.4-13.5c6.8-11.8,5.6-13.8,3.2-15.2
		C181.1,347.6,178.3,347.3,171.5,359.1z"/>
	<path class="st24" d="M182.3,373.6c-7.9,13.6-3.6,19.8-0.8,21.4s3-1.9,10.9-15.6c7.9-13.6,6.5-15.9,3.7-17.5
		C193.3,360.3,190.1,360,182.3,373.6z"/>
	<path class="st24" d="M386.8,213.9c13.1-8.7,12-16.1,10.3-18.8c-1.8-2.7-3.6,0.4-16.7,9.1c-13.1,8.7-12.9,11.3-11.1,14
		C371,220.9,373.7,222.6,386.8,213.9z"/>
	<path class="st24" d="M246.9,229.4c-14.7-5.7-18.7-4.1-19.2-2.8s2.7,1.8,17.4,7.5c14.7,5.7,16.2,5.2,16.7,3.9
		S261.6,235,246.9,229.4z"/>
	<path class="st24" d="M375,22c-1.6,7.6,1,10.1,2,10.3c1,0.2-1.8-1.5-0.2-9.1s3.7-8.2,2.7-8.4C378.5,14.5,376.7,14.4,375,22z"/>
	<path class="st24" d="M390.6,124.5c-2.5-15.5-8.4-17.5-9.7-17.3s3.1,1.8,5.5,17.3c2.5,15.5,1.2,19.2,1.8,17.9
		C389.4,139.5,393.1,140,390.6,124.5z"/>
	<path class="st24" d="M261,230.4c-7-2.7-8.9-2-9.1-1.3c-0.2,0.6,1.3,0.9,8.3,3.5c7,2.7,7.7,2.5,8,1.9S268,233.1,261,230.4z"/>
	<path class="st24" d="M295.9,355.3c2.4,7.2,2.5,8.4,11.7,15.7c2.1,1.7,5.9,2.4,9.7,2.4c1.6-6.4,4.3-7.5,7.9-7.1
		c-2.6-1.2-6.6-2.9-12.4-5.7C298.7,353.6,294.9,352.3,295.9,355.3z"/>
	<path class="st24" d="M199.6,447.8c13.6,7.8,17.8,6.9,18.5,5.7s-2.4-2.2-16.1-10c-13.6-7.8-15.2-7.6-15.9-6.4
		C185.5,438.3,186,439.9,199.6,447.8z"/>
	<path class="st24" d="M211.5,445.6c6.2,3.6,8.2,3.2,8.5,2.6s-1.1-1-7.3-4.6c-6.2-3.6-7-3.5-7.3-2.9
		C205.1,441.3,205.3,442.1,211.5,445.6z"/>
	<path class="st24" d="M121.2,477.4c-3.7,6.2-3.3,8.1-2.8,8.4c0.5,0.3,1-1.1,4.7-7.3c3.7-6.2,3.6-6.9,3.1-7.2
		C125.7,471.1,124.9,471.3,121.2,477.4z"/>
</g>
</svg>
