<?xml version="1.0" encoding="utf-8"?>
<!-- Generator: Adobe Illustrator 22.0.1, SVG Export Plug-In . SVG Version: 6.00 Build 0)  -->
<svg version="1.1" xmlns="http://www.w3.org/2000/svg" xmlns:xlink="http://www.w3.org/1999/xlink" x="0px" y="0px"
	 viewBox="0 0 500 187.7" style="enable-background:new 0 0 500 187.7;" xml:space="preserve">
<style type="text/css">
	.st0{display:none;}
	.st1{display:inline;}
	.st2{fill:none;stroke:#0071BC;stroke-width:2;stroke-miterlimit:10;}
	.st3{fill:#D9EFF8;stroke:#FFFFFF;stroke-width:10;stroke-miterlimit:10;}
	.st4{font-family:'Broadway';}
	.st5{font-size:68.2258px;}
	.st6{fill:#D9EFF8;stroke:#FFFFFF;stroke-width:3;stroke-miterlimit:10;}
	.st7{fill:url(#SVGID_1_);}
	.st8{fill:url(#SVGID_2_);}
	.st9{fill:url(#SVGID_3_);}
	.st10{fill:url(#SVGID_4_);}
	.st11{fill:url(#SVGID_5_);}
	.st12{fill:none;stroke:#0071BC;stroke-miterlimit:10;}
	.st13{fill:url(#SVGID_6_);}
	.st14{fill:url(#SVGID_7_);}
	.st15{fill:url(#SVGID_8_);}
	.st16{fill:url(#SVGID_9_);}
	.st17{fill:url(#SVGID_10_);}
	.st18{fill:url(#SVGID_11_);}
	.st19{fill:url(#SVGID_12_);}
	.st20{fill:#FFFFFF;stroke:#000000;stroke-width:2;stroke-miterlimit:10;}
	.st21{fill:#FF7BAC;}
	.st22{fill:#CD496E;}
	.st23{fill:#CF4A6F;}
	.st24{fill:#EFB9DD;}
</style>
<g id="Camada_1" class="st0">
	<g class="st1">
		<circle class="st2" cx="251.9" cy="-4.3" r="106"/>
		<circle class="st2" cx="250" cy="102.7" r="244"/>
		<path class="st2" d="M388.4,272.8H113.5c-1.4,0-2.5-1.1-2.5-2.5V110.7c0-5,4-9,9-9h261.9c5,0,9,4,9,9v159.5
			C391,271.7,389.8,272.8,388.4,272.8z"/>
	</g>
</g>
<g id="Camada_2">
	<g>
		<text transform="matrix(1 0 0 1 148.1968 89.9875)"><tspan x="0" y="0" class="st3 st4 st5">Coral</tspan><tspan x="198" y="0" class="st6 st4 st5"> </tspan></text>
		<g>
			<linearGradient id="SVGID_1_" gradientUnits="userSpaceOnUse" x1="173.0485" y1="91.3535" x2="173.0485" y2="43.1486">
				<stop  offset="0" style="stop-color:#F7931E"/>
				<stop  offset="1" style="stop-color:#FCEE21"/>
			</linearGradient>
			<path class="st7" d="M171.6,45.4L171.4,69l0.2,20.1c1.2,0.2,2.1,0.2,2.9,0.2c2.2,0,4.4-0.4,6.7-1.2c2.3-0.8,4.3-1.8,6.1-3.2
				c1.1-0.9,2.3-2,3.5-3.5c1.2-1.4,2.2-2.9,2.9-4.2c0.4-0.8,0.9-1.2,1.4-1.2c0.7,0,1.1,0.3,1.1,0.9c0,0.7-0.5,1.8-1.6,3.4
				c-1.1,1.6-2.3,3-3.6,4.3c-2.8,2.7-6.2,4.6-10,5.7c-2.3,0.6-4.5,1-6.7,1c-3.1,0-6.2-0.7-9.4-2c-5-2.1-8.8-5.5-11.5-10
				c-2.2-3.8-3.3-7.8-3.3-12.1c0-4.4,1.1-8.5,3.4-12.3c2.4-4.1,5.8-7.3,10.3-9.4c3.2-1.6,6.7-2.3,10.4-2.3c6.4,0,11.9,2.2,16.6,6.5
				c2.2,2.1,3.3,3.6,3.3,4.5c0,0.2-0.1,0.5-0.3,0.7c-0.2,0.2-0.5,0.3-0.7,0.3c-0.4,0-1-0.4-1.6-1.3c-1.9-2.6-4.4-4.7-7.6-6.3
				c-3.1-1.5-6.4-2.3-9.9-2.3C173.1,45.2,172.3,45.3,171.6,45.4z"/>
			<linearGradient id="SVGID_2_" gradientUnits="userSpaceOnUse" x1="216.9223" y1="91.3535" x2="216.9223" y2="43.1486">
				<stop  offset="0" style="stop-color:#F7931E"/>
				<stop  offset="1" style="stop-color:#FCEE21"/>
			</linearGradient>
			<path class="st8" d="M216.9,52.7c3.6,0,7,1,10.2,3c3,1.8,5.2,4.3,6.8,7.5c1.4,2.8,2.1,5.7,2.1,8.8c0,2.1-0.4,4.3-1.2,6.4
				c-0.8,2.2-1.9,4.1-3.3,5.7c-2,2.3-4.3,4-7.2,5.2c-2.3,1-4.7,1.4-7.2,1.4c-4.2,0-8-1.2-11.3-3.7c-2.6-1.9-4.6-4.4-6-7.4
				c-1.1-2.5-1.7-5.2-1.7-8c0-5.5,2-10.1,6-13.7C207.7,54.5,212,52.8,216.9,52.7z M215.9,54.8l-0.1,33.6c0.7,0,1.2,0.1,1.4,0.1
				c3.1,0,6-0.9,8.9-2.6c2.7-1.7,4.7-3.9,6.1-6.7c1.1-2.2,1.6-4.7,1.6-7.3c0-5.4-2-9.7-5.9-13c-3.2-2.7-6.7-4-10.4-4
				C217.1,54.8,216.6,54.8,215.9,54.8z"/>
			<linearGradient id="SVGID_3_" gradientUnits="userSpaceOnUse" x1="257.7144" y1="91.3535" x2="257.7144" y2="43.1486">
				<stop  offset="0" style="stop-color:#F7931E"/>
				<stop  offset="1" style="stop-color:#FCEE21"/>
			</linearGradient>
			<path class="st9" d="M258.2,63.9l-0.1,12.8l0.1,13.3h-17.1l0-1.8l0-6.8l0.1-12.2l-0.2-13.6l0-1.9h17.1v6.9
				c2.5-2.7,4.3-4.4,5.3-5.1c2.3-1.6,4.5-2.4,6.5-2.4c1.2,0,2.3,0.3,3.1,0.8c0.8,0.5,1.2,1.2,1.2,2c0,0.6-0.2,1.2-0.7,1.6
				c-0.5,0.4-1.1,0.6-1.8,0.6c-0.5,0-1-0.1-1.6-0.4c-1-0.5-1.8-0.7-2.4-0.7c-1.6,0-3.1,0.5-4.6,1.6C261.7,59.6,260,61.4,258.2,63.9z
				"/>
			<linearGradient id="SVGID_4_" gradientUnits="userSpaceOnUse" x1="295.5257" y1="91.3535" x2="295.5257" y2="43.1486">
				<stop  offset="0" style="stop-color:#F7931E"/>
				<stop  offset="1" style="stop-color:#FCEE21"/>
			</linearGradient>
			<path class="st10" d="M299.2,67.8v-4.1c0-2.8-0.1-4.6-0.1-5.2c-0.1-0.6-0.3-1.2-0.6-1.7c-0.8-1.2-2.7-1.9-5.6-1.9
				c-4.5,0-8,1.4-10.5,4.3c-1,1.2-1.8,1.7-2.5,1.7c-0.5,0-1-0.2-1.3-0.5c-0.4-0.4-0.6-0.8-0.6-1.2c0-1.4,1.7-2.8,5-4.3
				c3.2-1.4,7.2-2.1,12.2-2.1c8.2,0,14,1.2,17.4,3.7c1.5,1.1,2.4,2.3,2.9,3.7c0.4,1.4,0.7,3.7,0.7,7.2v13.2c-0.1,2.4,0,4.3,0.2,5.5
				c0.2,1.2,0.8,2.6,1.6,4h-18.7v-3.5c-2,1.4-4.1,2.5-6.1,3.2c-2,0.7-4,1.1-5.9,1.1c-3.3,0-6.3-1-8.8-2.9c-3.4-2.5-5-5.8-5-9.9
				c0-3.6,1.4-6.5,4.1-8.7c3.2-2.6,7.1-3.9,11.7-3.9c1.9,0,3.6,0.2,5.1,0.5C295.6,66.3,297.3,66.9,299.2,67.8z M299.2,70.2
				c-2.8-1.4-5-2.1-6.5-2.1c-1.3,0-2.1,0.5-2.5,1.5c-0.2,0.6-0.3,2.2-0.3,4.8v8c0,1.8,0.1,2.8,0.2,3.2c0.2,1,1,1.5,2.3,1.5
				c1,0,2.2-0.3,3.4-0.9c1.3-0.6,2.4-1.4,3.4-2.4L299.2,70.2z"/>
			<linearGradient id="SVGID_5_" gradientUnits="userSpaceOnUse" x1="332.0869" y1="91.3535" x2="332.0869" y2="43.1486">
				<stop  offset="0" style="stop-color:#F7931E"/>
				<stop  offset="1" style="stop-color:#FCEE21"/>
			</linearGradient>
			<path class="st11" d="M340.6,44.5l0,1.7l-0.1,11.7l0,5.1l-0.1,9.2l0.1,16.5V90h-17v-1.6l0.1-5.3l0-9.6l0.1-12.6l0-6.8l-0.1-7.4
				l0-2.3H340.6z"/>
		</g>
		<text transform="matrix(1 0 0 1 148.1968 89.9875)" class="st12 st4 st5">Coral </text>
	</g>
	<g>
		<text transform="matrix(1 0 0 1 203.3169 160.8532)"><tspan x="0" y="0" class="st3 st4 st5">Viagens</tspan><tspan x="289.9" y="0" class="st6 st4 st5"> </tspan></text>
		<g>
			<linearGradient id="SVGID_6_" gradientUnits="userSpaceOnUse" x1="230.2169" y1="164.3504" x2="230.2169" y2="112.8149">
				<stop  offset="0" style="stop-color:#F7931E"/>
				<stop  offset="1" style="stop-color:#FCEE21"/>
			</linearGradient>
			<path class="st13" d="M241.1,141.9l6-11.1c3-5.5,5.3-10,7.1-13.6c0.5-1,0.8-1.6,1.1-1.9c0.3-0.3,0.6-0.5,1-0.5
				c0.4,0,0.7,0.1,1,0.4c0.3,0.3,0.4,0.6,0.4,0.9c0,0.4-0.2,1-0.7,1.8c-0.1,0.2-0.2,0.4-0.3,0.6c-0.2,0.4-0.5,0.9-0.9,1.5
				l-24.6,44.4l-28.5-49h23.4L241.1,141.9z"/>
			<linearGradient id="SVGID_7_" gradientUnits="userSpaceOnUse" x1="269.2102" y1="164.3504" x2="269.2102" y2="112.8149">
				<stop  offset="0" style="stop-color:#F7931E"/>
				<stop  offset="1" style="stop-color:#FCEE21"/>
			</linearGradient>
			<path class="st14" d="M277.7,124.5v1l-0.1,5.2l-0.1,8.1l-0.1,12.3l0.1,6.9l0.1,3h-17.1l0.2-12.3l0.1-10.8l-0.1-5.7l-0.1-6.3
				l0-1.3H277.7z M269.1,112.8c5.9,0,8.8,1.5,8.8,4.6c0,1.5-0.8,2.6-2.3,3.5c-1.5,0.8-3.7,1.2-6.5,1.2c-5.6,0-8.4-1.6-8.4-4.7
				C260.7,114.4,263.5,112.9,269.1,112.8z"/>
			<linearGradient id="SVGID_8_" gradientUnits="userSpaceOnUse" x1="305.6052" y1="164.3504" x2="305.6052" y2="112.8149">
				<stop  offset="0" style="stop-color:#F7931E"/>
				<stop  offset="1" style="stop-color:#FCEE21"/>
			</linearGradient>
			<path class="st15" d="M309.3,138.7v-4.1c0-2.8-0.1-4.6-0.1-5.2c-0.1-0.6-0.3-1.2-0.6-1.7c-0.8-1.2-2.7-1.9-5.6-1.9
				c-4.5,0-8,1.4-10.5,4.3c-1,1.2-1.8,1.7-2.5,1.7c-0.5,0-1-0.2-1.3-0.5c-0.4-0.4-0.6-0.8-0.6-1.2c0-1.4,1.7-2.8,5-4.3
				c3.2-1.4,7.2-2.1,12.2-2.1c8.2,0,14,1.2,17.4,3.7c1.5,1.1,2.4,2.3,2.9,3.7c0.4,1.4,0.7,3.7,0.7,7.2v13.2c-0.1,2.4,0,4.3,0.2,5.5
				c0.2,1.2,0.8,2.6,1.6,4h-18.7v-3.5c-2,1.4-4.1,2.5-6.1,3.2c-2,0.7-4,1.1-5.9,1.1c-3.3,0-6.3-1-8.8-2.9c-3.4-2.5-5-5.8-5-9.9
				c0-3.6,1.4-6.5,4.1-8.7c3.2-2.6,7.1-3.9,11.7-3.9c1.9,0,3.6,0.2,5.1,0.5C305.7,137.1,307.4,137.8,309.3,138.7z M309.3,141.1
				c-2.8-1.4-5-2.1-6.5-2.1c-1.3,0-2.1,0.5-2.5,1.5c-0.2,0.6-0.3,2.2-0.3,4.8v8c0,1.8,0.1,2.8,0.2,3.2c0.2,1,1,1.5,2.3,1.5
				c1,0,2.2-0.3,3.4-0.9c1.3-0.6,2.4-1.4,3.4-2.4L309.3,141.1z"/>
			<linearGradient id="SVGID_9_" gradientUnits="userSpaceOnUse" x1="349.3458" y1="164.3504" x2="349.3458" y2="112.8149">
				<stop  offset="0" style="stop-color:#F7931E"/>
				<stop  offset="1" style="stop-color:#FCEE21"/>
			</linearGradient>
			<path class="st16" d="M359.5,125.9c1.9,0.9,3.5,2.2,4.8,3.7c1.7,2.1,2.6,4.5,2.6,7.2c0,1.9-0.5,3.8-1.5,5.5
				c-1,1.7-2.3,3.2-4.1,4.4c-3.2,2.2-7.2,3.3-11.7,3.3c-2.1,0-4.1-0.2-5.8-0.6c-1.8-0.4-3.4-0.9-4.9-1.7c-1,0.7-1.6,1.4-1.6,2.2
				c0,0.9,0.6,1.4,1.8,1.5c2.6,0.3,4.3,0.4,5.3,0.3l0.2,0h10l0.5,0c3.3-0.2,5.7,0.4,7.2,1.7c1.1,1,1.7,2.3,1.7,3.7
				c0,1.2-0.4,2.2-1.2,3.2c-1.3,1.6-3.1,2.4-5.4,2.4c-0.4,0-1,0-1.6-0.1c0.4-0.6,0.5-1,0.5-1.3c0-0.7-0.6-1-1.9-1
				c-1.1,0-3.3,0.2-6.7,0.7c-2.4,0.3-4.3,0.5-5.9,0.5c-2.4,0-4.6-0.5-6.4-1.6c-1-0.6-1.9-1.4-2.5-2.5c-0.6-1-0.9-2.2-0.9-3.4
				c0-1.4,0.4-2.6,1.1-3.8c0.7-1.1,1.9-2.3,3.6-3.6c-1.6-1-2.8-2.3-3.7-3.9c-0.9-1.6-1.3-3.4-1.3-5.2c0-4.5,2.3-8.1,6.8-10.7
				c3.4-2,7.5-3,12.3-3c1.1,0,2.2,0.1,3.3,0.2c1.6,0.1,2.7,0.2,3.4,0.2c1.8,0,3-0.8,3.8-2.3c0.5-0.9,1-1.4,1.5-1.4
				c0.4,0,0.8,0.1,1.1,0.4c0.3,0.3,0.5,0.6,0.5,1c0,0.8-0.4,1.6-1.3,2.3C362.3,124.8,361.1,125.4,359.5,125.9z M346.4,129.6v14.1
				c0,1.7,0.1,2.7,0.4,3.1c0.4,0.6,1.4,1,2.8,1c1.3,0,2.1-0.3,2.6-0.9c0.4-0.6,0.6-1.8,0.6-3.6v-13.6c0-1.5-0.2-2.5-0.6-3
				c-0.4-0.5-1.3-0.8-2.5-0.8c-1.3,0-2.1,0.3-2.5,0.8C346.6,127.1,346.4,128.1,346.4,129.6z"/>
			<linearGradient id="SVGID_10_" gradientUnits="userSpaceOnUse" x1="388.3889" y1="164.3504" x2="388.3889" y2="112.8149">
				<stop  offset="0" style="stop-color:#F7931E"/>
				<stop  offset="1" style="stop-color:#FCEE21"/>
			</linearGradient>
			<path class="st17" d="M385,143.7v10.3c0,2,0.1,3.3,0.4,3.8c0.5,1,1.6,1.5,3.3,1.5c2.6,0,5.1-0.7,7.6-2.1c2.5-1.4,4.7-3.4,6.5-5.8
				c0.6-0.8,1-1.3,1.3-1.6c0.3-0.2,0.6-0.3,0.9-0.3c0.4,0,0.7,0.1,0.9,0.4c0.2,0.3,0.4,0.6,0.4,1c0,0.9-0.7,2.2-2.2,3.8
				c-2,2-4.4,3.7-7.3,4.9c-2.9,1.3-5.7,1.9-8.5,1.9c-4.7,0-8.9-1.6-12.5-4.8c-2.1-1.9-3.7-4.2-4.9-6.9c-1-2.4-1.5-4.8-1.5-7.2
				c0-2.3,0.4-4.6,1.3-6.9c0.9-2.3,2.1-4.3,3.7-6c1.8-2,3.9-3.5,6.4-4.6c2.4-1.1,5-1.6,7.6-1.6c4.1,0,7.8,1.2,11.2,3.6
				c5.2,3.8,7.8,9.3,7.7,16.4h-7.8l-10,0L385,143.7z M393.5,141.5v-9.7c0-2.1-0.1-3.3-0.1-3.7c0-0.4-0.2-0.8-0.5-1.1
				c-0.6-0.9-1.9-1.3-3.8-1.3c-2,0-3.2,0.5-3.7,1.5c-0.3,0.6-0.5,2.2-0.5,4.7v9.7l4.1,0.1L393.5,141.5z"/>
			<linearGradient id="SVGID_11_" gradientUnits="userSpaceOnUse" x1="434.6284" y1="164.3504" x2="434.6284" y2="112.8149">
				<stop  offset="0" style="stop-color:#F7931E"/>
				<stop  offset="1" style="stop-color:#FCEE21"/>
			</linearGradient>
			<path class="st18" d="M429.6,124.5v4.6c2.6-1.8,5.1-3.2,7.6-4.1c2.5-0.9,4.9-1.4,7.3-1.4c3.2,0,5.8,0.7,8,2.2
				c1.6,1.1,2.7,2.4,3.3,4c0.6,1.6,0.8,4.2,0.8,7.9l-0.1,15.4l0.1,7.8h-16.9l0.1-9.3l0.1-6.8l0-10.3c0-2.4,0-3.8-0.1-4.2
				c0-0.5-0.1-0.9-0.3-1.2c-0.4-0.7-1.1-1.1-2.3-1.1c-1.1,0-2.3,0.3-3.5,0.9c-1.3,0.6-2.6,1.6-4.1,2.8l0,1.4l-0.1,9.4l-0.1,7.2
				l0.1,9.8l0,1.4h-17l0.1-13.1l0.1-8.6l-0.1-7.5l-0.1-7.2H429.6z"/>
			<linearGradient id="SVGID_12_" gradientUnits="userSpaceOnUse" x1="476.6695" y1="164.3504" x2="476.6695" y2="112.8149">
				<stop  offset="0" style="stop-color:#F7931E"/>
				<stop  offset="1" style="stop-color:#FCEE21"/>
			</linearGradient>
			<path class="st19" d="M463.4,154.7c0.4,0,1,0.3,1.7,1c1.1,1.1,2.7,2,4.7,2.7c2,0.7,4,1.1,5.7,1.1c0.8,0,1.4-0.1,1.8-0.4
				s0.6-0.7,0.6-1.2c0-0.5-0.3-1.2-0.8-1.9c-0.6-0.7-1.8-2.2-3.8-4.3c-4.8-5.1-7.9-8.7-9.3-10.8c-1.4-2.1-2.1-4.1-2.1-6
				c0-1.7,0.5-3.3,1.4-4.8c1-1.5,2.3-2.8,4-3.9c2.9-1.8,6.2-2.7,9.9-2.7c2.7,0,5.6,0.6,8.7,1.7c2.4,0.9,3.6,1.9,3.6,3
				c0,0.3-0.1,0.6-0.4,0.9c-0.3,0.3-0.6,0.4-0.9,0.4c-0.4,0-1.2-0.4-2.4-1.2c-2.4-1.7-4.9-2.5-7.7-2.5c-1,0-1.7,0.2-2.2,0.5
				c-0.5,0.3-0.7,0.8-0.7,1.4c0,0.8,0.5,1.7,1.4,2.9c0.9,1.2,2.8,3.1,5.6,5.9c2.8,2.7,4.5,4.4,5.2,5.3s1.5,1.8,2.1,2.9
				c1.2,1.9,1.8,3.9,1.8,6.1c0,3.4-1.7,6.2-5,8.3c-2.7,1.8-6,2.6-10,2.6c-4.4,0-8.3-1-11.7-2.9c-1-0.6-1.7-1.1-2-1.5
				c-0.4-0.4-0.5-0.8-0.5-1.2C462.1,155.1,462.5,154.7,463.4,154.7z"/>
		</g>
		<text transform="matrix(1 0 0 1 203.3169 160.8532)" class="st12 st4 st5">Viagens </text>
	</g>
	<path class="st20" d="M-19.1,122.1"/>
	<path class="st20" d="M-2.2,110.8"/>
	<path class="st21" d="M115.2,74.6c0,0,8.1-12.5,7.2-25.1s-6.8-11.8-1.4-26.5c5.4-14.7-2.7-24.5-7.2-16.7c-2.9,5.1,5.6,6.9-9,19.8
		C93.6,35.9,93.5,48.8,90.2,55c-3.4,6.2-5.4,8.7-5.4,8.7L115.2,74.6z"/>
	<path class="st21" d="M50.6,125.1c0,0-12.4,8.3-16.6,20.1c-4.2,11.9,1.5,13.5-9.3,24.9c-10.8,11.4-10.1,17.7-2.9,12.3
		c4.7-3.5,0.5-2.7,19.1-8.7c14.2-4.6,19.4-16.4,25-20.7c5.6-4.3,8.4-5.9,8.4-5.9L50.6,125.1z"/>
	<path class="st22" d="M119.5,66.7c16.1,9.9-2.6,16.7-8.5,18.9c-5,1.9-2.6,1-3.9,16.6v10.5L49.5,85.1c0,0-0.7-4.2,7-5.3
		s6.1-1.4,9-1.2c2.6,0.1,5.6,4,7.5-1.5c2-5.5,0.7-16.7,5.1-20.2s11.5,2.9,14.9,4.8c3.4,2,6.1,4.5,12.1,3.7S118.4,66,119.5,66.7z"/>
	<path class="st23" d="M68,141.1c9.5,7.3,10.4,13.8,6.9,15.6c-3,1.5-3.4-1.6-6.8,7.7c-0.9,2.4-5.3,5.9-7.7,6.8
		c-2.4,0.9-8.3,1-10.6-0.2c-3.9-2.1-10.7-7.6-14.9-9c-3-1-9-6-9-6s-5.9-6.2-2.1-9.2c4.5-3.5,3.8-5.7,5.6-5.9c1.6-0.1,7.1,6.4,8,2.8
		c0.9-3.6,1.4-8.7,3.9-11.2c2.5-2.5,8,2.1,15.7,3.3C60.9,136.5,63.4,137.6,68,141.1z"/>
	<path class="st21" d="M10.2,136.7c0,0,13.2,11.1,19.9,13.2c9.2,3,34.3,4.2,42.9,8.8c5,2.7,8.6,5.9,14,4.1
		c5.2-1.8,5.4-11.1,5.4-11.1c-0.1-5.9,0.1-9.3,0.6-11.4c0.6-2.4,1.6-2.8,3-2.7c1.8,0.2,4.2,1.3,6.9-0.1c7.8-3.9,21-17.4,0.1-33.5
		c-10.1-7.8-15.6-10.3-24-11.6c-17-2.6-29-12.7-34.6-7.3c-5.6,5.5-6.8,16.8-8.7,24.6c-1.9,7.8-6.8,11.6-10.4,11.9
		c-4.1,0.3-3.2-2.8-13.1,4.9C3.7,133.2,10.2,136.7,10.2,136.7z"/>
	<path class="st24" d="M31.6,130.6c-3.7,6.3-1.7,9.2-0.4,9.9c1.3,0.7,1.4-0.9,5.1-7.2c3.7-6.3,3-7.4,1.7-8.1
		C36.7,124.4,35.3,124.2,31.6,130.6z"/>
	<path class="st24" d="M38.1,134.9c-2.6,4.4-1.2,6.5-0.3,7s1-0.6,3.6-5.1c2.6-4.4,2.1-5.2,1.2-5.7C41.7,130.6,40.7,130.5,38.1,134.9
		z"/>
	<path class="st24" d="M42.2,140.4c-3,5.1-1.3,7.4-0.3,8c1,0.6,1.1-0.7,4.1-5.9s2.4-6,1.4-6.6C46.3,135.4,45.1,135.3,42.2,140.4z"/>
	<path class="st24" d="M119.2,80.3c4.9-3.3,4.5-6.1,3.9-7.1c-0.7-1-1.3,0.1-6.3,3.4s-4.9,4.3-4.2,5.3
		C113.2,82.9,114.2,83.5,119.2,80.3z"/>
	<path class="st24" d="M66.5,86.1c-5.5-2.1-7-1.5-7.2-1.1c-0.2,0.5,1,0.7,6.5,2.8c5.5,2.1,6.1,2,6.3,1.5
		C72.3,88.8,72.1,88.2,66.5,86.1z"/>
	<path class="st24" d="M114.8,8c-0.6,2.8,0.4,3.8,0.7,3.9c0.4,0.1-0.7-0.6-0.1-3.4s1.4-3.1,1-3.2C116,5.2,115.4,5.2,114.8,8z"/>
	<path class="st24" d="M120.6,46.6c-0.9-5.8-3.2-6.6-3.7-6.5c-0.5,0.1,1.2,0.7,2.1,6.5c0.9,5.8,0.5,7.2,0.7,6.7
		C120.2,52.2,121.6,52.4,120.6,46.6z"/>
	<path class="st24" d="M71.8,86.5c-2.6-1-3.3-0.7-3.4-0.5c-0.1,0.2,0.5,0.3,3.1,1.3c2.6,1,2.9,0.9,3,0.7
		C74.6,87.8,74.4,87.5,71.8,86.5z"/>
	<path class="st24" d="M85,133.5c0.9,2.7,0.9,3.1,4.4,5.9c0.8,0.6,2.2,0.9,3.6,0.9c0.6-2.4,1.6-2.8,3-2.7c-1-0.4-2.5-1.1-4.7-2.2
		C86,132.8,84.6,132.3,85,133.5z"/>
	<path class="st24" d="M48.7,168.3c5.1,2.9,6.7,2.6,7,2.2c0.3-0.4-0.9-0.8-6-3.8s-5.7-2.9-6-2.4C43.4,164.7,43.6,165.3,48.7,168.3z"
		/>
	<path class="st24" d="M53.2,167.5c2.3,1.3,3.1,1.2,3.2,1c0.1-0.2-0.4-0.4-2.8-1.7c-2.3-1.3-2.6-1.3-2.7-1.1S50.9,166.1,53.2,167.5z
		"/>
	<path class="st24" d="M19.2,179.5c-1.4,2.3-1.2,3-1,3.2s0.4-0.4,1.8-2.7c1.4-2.3,1.4-2.6,1.2-2.7C20.9,177.1,20.6,177.1,19.2,179.5
		z"/>
</g>
</svg>
