<?xml version="1.0" encoding="utf-8"?>
<!-- Generator: Adobe Illustrator 22.0.1, SVG Export Plug-In . SVG Version: 6.00 Build 0)  -->
<svg version="1.1" xmlns="http://www.w3.org/2000/svg" xmlns:xlink="http://www.w3.org/1999/xlink" x="0px" y="0px"
	 viewBox="0 0 500 185" style="enable-background:new 0 0 500 185;" xml:space="preserve">
<style type="text/css">
	.st0{display:none;}
	.st1{display:inline;}
	.st2{fill:none;stroke:#0071BC;stroke-width:2;stroke-miterlimit:10;}
	.st3{fill:#D9EFF8;stroke:#FFFFFF;stroke-width:10;stroke-miterlimit:10;}
	.st4{font-family:'Broadway';}
	.st5{font-size:97.2657px;}
	.st6{fill:#D9EFF8;stroke:#FFFFFF;stroke-width:3;stroke-miterlimit:10;}
	.st7{fill:url(#SVGID_1_);}
	.st8{fill:url(#SVGID_2_);}
	.st9{fill:url(#SVGID_3_);}
	.st10{fill:url(#SVGID_4_);}
	.st11{fill:url(#SVGID_5_);}
	.st12{fill:none;stroke:#0071BC;stroke-miterlimit:10;}
	.st13{fill:url(#SVGID_6_);}
	.st14{fill:url(#SVGID_7_);}
	.st15{fill:url(#SVGID_8_);}
	.st16{fill:url(#SVGID_9_);}
	.st17{fill:url(#SVGID_10_);}
	.st18{fill:url(#SVGID_11_);}
	.st19{fill:url(#SVGID_12_);}
	.st20{display:none;fill:#FFFFFF;stroke:#000000;stroke-width:2;stroke-miterlimit:10;}
	.st21{display:none;fill:#FF7BAC;}
	.st22{display:none;fill:#CD496E;}
	.st23{display:none;fill:#CF4A6F;}
	.st24{display:none;fill:#EFB9DD;}
</style>
<g id="Camada_1" class="st0">
	<g class="st1">
		<circle class="st2" cx="251.9" cy="-13.9" r="106"/>
		<circle class="st2" cx="250" cy="93" r="244"/>
		<path class="st2" d="M388.4,263.1H113.5c-1.4,0-2.5-1.1-2.5-2.5V101.1c0-5,4-9,9-9h261.9c5,0,9,4,9,9v159.5
			C391,262,389.8,263.1,388.4,263.1z"/>
	</g>
</g>
<g id="Camada_2">
	<g>
		<text transform="matrix(1 0 0 1 5.1978 73.8057)"><tspan x="0" y="0" class="st3 st4 st5">Coral</tspan><tspan x="282.3" y="0" class="st6 st4 st5"> </tspan></text>
		<g>
			<linearGradient id="SVGID_1_" gradientUnits="userSpaceOnUse" x1="40.6269" y1="75.7525" x2="40.6269" y2="7.0296">
				<stop  offset="0" style="stop-color:#F7931E"/>
				<stop  offset="1" style="stop-color:#FCEE21"/>
			</linearGradient>
			<path class="st7" d="M38.5,10.3l-0.3,33.7l0.3,28.6c1.6,0.2,3,0.3,4.1,0.3c3.1,0,6.3-0.6,9.5-1.7c3.3-1.1,6.1-2.6,8.6-4.5
				c1.6-1.2,3.3-2.9,5-4.9c1.7-2.1,3.1-4.1,4.1-6c0.6-1.1,1.2-1.7,1.9-1.7c1,0,1.6,0.4,1.6,1.3c0,0.9-0.8,2.6-2.4,4.8
				c-1.6,2.3-3.3,4.3-5.2,6.1c-4.1,3.9-8.8,6.6-14.3,8.1c-3.3,0.9-6.5,1.4-9.5,1.4c-4.4,0-8.9-0.9-13.3-2.8
				c-7.2-3-12.6-7.8-16.3-14.3c-3.1-5.4-4.7-11.2-4.7-17.2c0-6.2,1.6-12.1,4.8-17.6c3.5-5.9,8.3-10.3,14.6-13.4
				C31.9,8.1,36.8,7,42.1,7c9.1,0,17,3.1,23.7,9.3c3.2,2.9,4.7,5.1,4.7,6.4c0,0.3-0.2,0.7-0.5,0.9c-0.3,0.3-0.7,0.4-1,0.4
				c-0.6,0-1.4-0.6-2.3-1.9c-2.7-3.8-6.3-6.8-10.8-9c-4.5-2.2-9.2-3.3-14.1-3.3C40.7,9.9,39.6,10,38.5,10.3z"/>
			<linearGradient id="SVGID_2_" gradientUnits="userSpaceOnUse" x1="103.1752" y1="75.7525" x2="103.1752" y2="7.0296">
				<stop  offset="0" style="stop-color:#F7931E"/>
				<stop  offset="1" style="stop-color:#FCEE21"/>
			</linearGradient>
			<path class="st8" d="M103.1,20.7c5.1,0,9.9,1.4,14.5,4.2c4.2,2.6,7.4,6.1,9.6,10.6c2,4,2.9,8.2,2.9,12.6c0,3-0.6,6.1-1.7,9.2
				c-1.2,3.1-2.7,5.8-4.7,8.2c-2.8,3.3-6.2,5.7-10.2,7.4c-3.3,1.4-6.7,2-10.3,2c-6,0-11.4-1.8-16.1-5.3c-3.7-2.7-6.6-6.2-8.5-10.5
				c-1.6-3.6-2.4-7.4-2.4-11.4c0-7.9,2.8-14.4,8.5-19.6C90.1,23.2,96.2,20.8,103.1,20.7z M101.8,23.7l-0.1,47.9c1,0.1,1.7,0.1,2,0.1
				c4.4,0,8.6-1.2,12.6-3.7c3.9-2.4,6.8-5.6,8.7-9.6c1.5-3.2,2.3-6.7,2.3-10.5c0-7.6-2.8-13.8-8.5-18.6c-4.6-3.8-9.5-5.8-14.9-5.8
				C103.5,23.6,102.8,23.6,101.8,23.7z"/>
			<linearGradient id="SVGID_3_" gradientUnits="userSpaceOnUse" x1="161.3303" y1="75.7525" x2="161.3303" y2="7.0296">
				<stop  offset="0" style="stop-color:#F7931E"/>
				<stop  offset="1" style="stop-color:#FCEE21"/>
			</linearGradient>
			<path class="st9" d="M162,36.7l-0.1,18.2l0.2,18.9h-24.4l0.1-2.6l0.1-9.7l0.2-17.4l-0.2-19.4l-0.1-2.8H162v9.8
				c3.6-3.9,6.2-6.3,7.6-7.3c3.3-2.3,6.4-3.5,9.3-3.5c1.8,0,3.2,0.4,4.4,1.1c1.2,0.8,1.7,1.7,1.7,2.9c0,0.9-0.3,1.7-1,2.3
				c-0.7,0.6-1.6,0.9-2.6,0.9c-0.7,0-1.4-0.2-2.2-0.6c-1.4-0.7-2.5-1-3.5-1c-2.3,0-4.5,0.8-6.6,2.3C167,30.5,164.6,33.1,162,36.7z"
				/>
			<linearGradient id="SVGID_4_" gradientUnits="userSpaceOnUse" x1="215.2356" y1="75.7525" x2="215.2356" y2="7.0296">
				<stop  offset="0" style="stop-color:#F7931E"/>
				<stop  offset="1" style="stop-color:#FCEE21"/>
			</linearGradient>
			<path class="st10" d="M220.4,42.2v-5.8c0-4-0.1-6.5-0.2-7.4c-0.1-0.9-0.4-1.7-0.9-2.5c-1.1-1.8-3.8-2.7-8-2.7
				c-6.5,0-11.5,2-15,6.1c-1.4,1.6-2.6,2.5-3.6,2.5c-0.7,0-1.4-0.3-1.9-0.8c-0.5-0.5-0.8-1.1-0.8-1.8c0-2,2.4-4.1,7.1-6.2
				c4.5-2,10.3-3,17.4-3c11.7,0,20,1.8,24.8,5.3c2.1,1.6,3.5,3.3,4.1,5.2c0.6,1.9,1,5.3,1,10.2v18.9c-0.1,3.5,0,6.1,0.3,7.9
				c0.3,1.8,1.1,3.6,2.3,5.7h-26.6v-5c-2.9,2-5.8,3.5-8.7,4.5c-2.9,1-5.7,1.5-8.5,1.5c-4.7,0-8.9-1.4-12.6-4.1
				c-4.8-3.6-7.2-8.3-7.2-14.1c0-5.1,1.9-9.2,5.8-12.3c4.5-3.7,10.1-5.6,16.7-5.6c2.7,0,5.1,0.2,7.2,0.7
				C215.3,40,217.7,40.9,220.4,42.2z M220.4,45.6c-4-2-7.1-3-9.3-3c-1.8,0-3,0.7-3.6,2.2c-0.3,0.8-0.5,3.1-0.5,6.9V63
				c0,2.5,0.1,4,0.2,4.6c0.3,1.5,1.4,2.2,3.2,2.2c1.5,0,3.1-0.4,4.9-1.3c1.8-0.9,3.4-2,4.9-3.4L220.4,45.6z"/>
			<linearGradient id="SVGID_5_" gradientUnits="userSpaceOnUse" x1="267.3588" y1="75.7525" x2="267.3588" y2="7.0296">
				<stop  offset="0" style="stop-color:#F7931E"/>
				<stop  offset="1" style="stop-color:#FCEE21"/>
			</linearGradient>
			<path class="st11" d="M279.5,9l0,2.4l-0.1,16.7l0,7.2l-0.1,13.2l0.2,23.5v1.9h-24.3v-2.2l0.1-7.6l0.1-13.7l0.1-17.9l0-9.6
				l-0.1-10.6l0-3.2H279.5z"/>
		</g>
		<text transform="matrix(1 0 0 1 5.1978 73.8057)" class="st12 st4 st5">Coral </text>
	</g>
	<g>
		<text transform="matrix(1 0 0 1 83.7778 174.834)"><tspan x="0" y="0" class="st3 st4 st5">Viagens</tspan><tspan x="413.3" y="0" class="st6 st4 st5"> </tspan></text>
		<g>
			<linearGradient id="SVGID_6_" gradientUnits="userSpaceOnUse" x1="122.1286" y1="179.8202" x2="122.1286" y2="106.3489">
				<stop  offset="0" style="stop-color:#F7931E"/>
				<stop  offset="1" style="stop-color:#FCEE21"/>
			</linearGradient>
			<path class="st13" d="M137.7,147.9l8.5-15.9c4.2-7.8,7.6-14.3,10.1-19.4c0.7-1.4,1.2-2.3,1.6-2.8c0.4-0.5,0.9-0.7,1.5-0.7
				c0.5,0,1,0.2,1.4,0.5c0.4,0.4,0.6,0.8,0.6,1.3c0,0.5-0.3,1.4-1,2.6c-0.2,0.3-0.3,0.6-0.5,0.8c-0.3,0.5-0.7,1.2-1.2,2.1
				l-35.1,63.4L82.9,110h33.3L137.7,147.9z"/>
			<linearGradient id="SVGID_7_" gradientUnits="userSpaceOnUse" x1="177.7192" y1="179.8202" x2="177.7192" y2="106.3489">
				<stop  offset="0" style="stop-color:#F7931E"/>
				<stop  offset="1" style="stop-color:#FCEE21"/>
			</linearGradient>
			<path class="st14" d="M189.8,123v1.4l-0.1,7.4l-0.1,11.5l-0.1,17.5l0.2,9.8l0.1,4.3h-24.4l0.2-17.5l0.1-15.4l-0.1-8.1l-0.1-9
				l0-1.8H189.8z M177.5,106.3c8.4,0,12.5,2.2,12.5,6.6c0,2.1-1.1,3.8-3.3,5c-2.2,1.2-5.3,1.8-9.3,1.8c-7.9,0-11.9-2.2-11.9-6.7
				C165.6,108.6,169.6,106.4,177.5,106.3z"/>
			<linearGradient id="SVGID_8_" gradientUnits="userSpaceOnUse" x1="229.6054" y1="179.8202" x2="229.6054" y2="106.3489">
				<stop  offset="0" style="stop-color:#F7931E"/>
				<stop  offset="1" style="stop-color:#FCEE21"/>
			</linearGradient>
			<path class="st15" d="M234.8,143.2v-5.8c0-4-0.1-6.5-0.2-7.4c-0.1-0.9-0.4-1.7-0.9-2.5c-1.1-1.8-3.8-2.7-8-2.7
				c-6.5,0-11.5,2-15,6.1c-1.4,1.6-2.6,2.5-3.6,2.5c-0.7,0-1.4-0.3-1.9-0.8c-0.5-0.5-0.8-1.1-0.8-1.8c0-2,2.4-4.1,7.1-6.2
				c4.5-2,10.3-3,17.4-3c11.7,0,20,1.8,24.8,5.3c2.1,1.6,3.5,3.3,4.1,5.2c0.6,1.9,1,5.3,1,10.2v18.9c-0.1,3.5,0,6.1,0.3,7.9
				c0.3,1.8,1.1,3.6,2.3,5.7h-26.6v-5c-2.9,2-5.8,3.5-8.7,4.5c-2.9,1-5.7,1.5-8.5,1.5c-4.7,0-8.9-1.4-12.6-4.1
				c-4.8-3.6-7.2-8.3-7.2-14.1c0-5.1,1.9-9.2,5.8-12.3c4.5-3.7,10.1-5.6,16.7-5.6c2.7,0,5.1,0.2,7.2,0.7
				C229.7,141,232.1,141.9,234.8,143.2z M234.8,146.6c-4-2-7.1-3-9.3-3c-1.8,0-3,0.7-3.6,2.2c-0.3,0.8-0.5,3.1-0.5,6.9v11.4
				c0,2.5,0.1,4,0.2,4.6c0.3,1.5,1.4,2.2,3.2,2.2c1.5,0,3.1-0.4,4.9-1.3c1.8-0.9,3.4-2,4.9-3.4L234.8,146.6z"/>
			<linearGradient id="SVGID_9_" gradientUnits="userSpaceOnUse" x1="291.964" y1="179.8202" x2="291.964" y2="106.3489">
				<stop  offset="0" style="stop-color:#F7931E"/>
				<stop  offset="1" style="stop-color:#FCEE21"/>
			</linearGradient>
			<path class="st16" d="M306.5,125c2.7,1.3,5,3.1,6.8,5.3c2.4,2.9,3.7,6.3,3.7,10.2c0,2.8-0.7,5.4-2.1,7.8
				c-1.4,2.5-3.3,4.5-5.8,6.2c-4.6,3.1-10.2,4.7-16.7,4.7c-3,0-5.8-0.3-8.3-0.8c-2.5-0.5-4.8-1.3-6.9-2.4c-1.5,1-2.2,2-2.2,3.1
				c0,1.2,0.8,2,2.5,2.2c3.6,0.5,6.1,0.6,7.5,0.4l0.3,0h14.2l0.7,0c4.8-0.3,8.2,0.5,10.3,2.4c1.6,1.5,2.4,3.2,2.4,5.2
				c0,1.7-0.6,3.2-1.7,4.6c-1.9,2.2-4.5,3.4-7.7,3.4c-0.6,0-1.4,0-2.3-0.1c0.5-0.8,0.8-1.4,0.8-1.9c0-1-0.9-1.5-2.7-1.5
				c-1.5,0-4.7,0.3-9.5,1c-3.4,0.5-6.2,0.7-8.4,0.7c-3.5,0-6.5-0.7-9.1-2.2c-1.5-0.9-2.7-2-3.5-3.5c-0.9-1.5-1.3-3.1-1.3-4.8
				c0-2,0.5-3.8,1.5-5.4c1-1.6,2.7-3.3,5.2-5.2c-2.2-1.4-4-3.3-5.2-5.6c-1.2-2.3-1.9-4.8-1.9-7.5c0-6.4,3.2-11.5,9.6-15.3
				c4.8-2.9,10.7-4.3,17.5-4.3c1.5,0,3.1,0.1,4.7,0.2c2.2,0.2,3.9,0.3,4.9,0.3c2.5,0,4.3-1.1,5.5-3.3c0.7-1.3,1.4-2,2.1-2
				c0.6,0,1.1,0.2,1.6,0.6c0.4,0.4,0.7,0.9,0.7,1.4c0,1.1-0.6,2.3-1.9,3.3C310.4,123.4,308.7,124.3,306.5,125z M287.8,130.2v20.1
				c0,2.4,0.2,3.9,0.6,4.5c0.6,0.9,1.9,1.4,3.9,1.4c1.8,0,3.1-0.4,3.7-1.3c0.6-0.9,0.9-2.6,0.9-5.2v-19.4c0-2.2-0.3-3.6-0.9-4.3
				c-0.6-0.7-1.8-1.1-3.6-1.1c-1.8,0-3,0.4-3.6,1.1C288.1,126.7,287.8,128.1,287.8,130.2z"/>
			<linearGradient id="SVGID_10_" gradientUnits="userSpaceOnUse" x1="347.6255" y1="179.8202" x2="347.6255" y2="106.3489">
				<stop  offset="0" style="stop-color:#F7931E"/>
				<stop  offset="1" style="stop-color:#FCEE21"/>
			</linearGradient>
			<path class="st17" d="M342.8,150.4v14.7c0,2.8,0.2,4.7,0.5,5.4c0.7,1.5,2.2,2.2,4.7,2.2c3.7,0,7.3-1,10.9-3
				c3.6-2,6.7-4.8,9.3-8.3c0.9-1.2,1.5-1.9,1.9-2.2c0.4-0.3,0.8-0.5,1.2-0.5c0.5,0,1,0.2,1.3,0.6c0.3,0.4,0.5,0.9,0.5,1.5
				c0,1.3-1.1,3.1-3.2,5.4c-2.8,2.9-6.2,5.2-10.4,7c-4.1,1.8-8.2,2.7-12.1,2.7c-6.7,0-12.7-2.3-17.9-6.8c-3-2.7-5.3-5.9-6.9-9.8
				c-1.4-3.4-2.1-6.8-2.1-10.3c0-3.3,0.6-6.6,1.9-9.9s3-6.2,5.2-8.6c2.6-2.8,5.6-5,9.1-6.6c3.4-1.5,7.1-2.3,10.8-2.3
				c5.9,0,11.2,1.7,15.9,5.2c7.4,5.4,11.1,13.2,11,23.4h-11.1l-14.2,0L342.8,150.4z M355,147.3v-13.8c-0.1-3-0.1-4.7-0.2-5.3
				c-0.1-0.6-0.3-1.1-0.7-1.6c-0.9-1.2-2.7-1.8-5.4-1.8c-2.8,0-4.5,0.7-5.2,2.1c-0.4,0.9-0.7,3.1-0.7,6.7v13.8l5.8,0.2L355,147.3z"
				/>
			<linearGradient id="SVGID_11_" gradientUnits="userSpaceOnUse" x1="413.5465" y1="179.8202" x2="413.5465" y2="106.3489">
				<stop  offset="0" style="stop-color:#F7931E"/>
				<stop  offset="1" style="stop-color:#FCEE21"/>
			</linearGradient>
			<path class="st18" d="M406.4,123v6.6c3.7-2.6,7.3-4.6,10.9-5.9c3.5-1.3,7-2,10.4-2c4.5,0,8.3,1,11.4,3.1c2.3,1.6,3.9,3.5,4.7,5.8
				c0.8,2.3,1.2,6,1.2,11.2l-0.1,22l0.1,11.1h-24.1l0.2-13.2l0.1-9.7l0-14.6c0-3.4-0.1-5.4-0.1-6.1c0-0.6-0.2-1.2-0.5-1.7
				c-0.5-1-1.6-1.5-3.3-1.5c-1.6,0-3.2,0.4-5,1.3c-1.8,0.9-3.8,2.2-5.8,4l0,1.9l-0.1,13.3l-0.1,10.2l0.1,14l0,2h-24.3l0.1-18.6
				l0.1-12.3l-0.1-10.6l-0.1-10.3H406.4z"/>
			<linearGradient id="SVGID_12_" gradientUnits="userSpaceOnUse" x1="473.4821" y1="179.8202" x2="473.4821" y2="106.3489">
				<stop  offset="0" style="stop-color:#F7931E"/>
				<stop  offset="1" style="stop-color:#FCEE21"/>
			</linearGradient>
			<path class="st19" d="M454.6,166c0.6,0,1.4,0.5,2.4,1.4c1.6,1.5,3.8,2.8,6.7,3.8c2.9,1.1,5.6,1.6,8.2,1.6c1.2,0,2.1-0.2,2.6-0.6
				c0.6-0.4,0.9-1,0.9-1.7c0-0.8-0.4-1.7-1.2-2.8c-0.8-1.1-2.6-3.1-5.4-6.1c-6.8-7.3-11.2-12.4-13.2-15.4c-2-3-3-5.8-3-8.5
				c0-2.4,0.7-4.6,2.1-6.8s3.3-4,5.8-5.5c4.1-2.5,8.8-3.8,14.1-3.8c3.9,0,8,0.8,12.3,2.5c3.4,1.3,5.1,2.7,5.1,4.2
				c0,0.5-0.2,0.9-0.6,1.3c-0.4,0.4-0.8,0.6-1.4,0.6c-0.6,0-1.7-0.6-3.4-1.8c-3.4-2.4-7-3.6-11-3.6c-1.4,0-2.4,0.2-3.2,0.7
				c-0.7,0.4-1.1,1.1-1.1,2c0,1.1,0.7,2.4,2,4.1c1.3,1.6,4,4.4,8,8.4c3.9,3.8,6.4,6.3,7.5,7.5c1.1,1.2,2.1,2.6,3.1,4.1
				c1.7,2.7,2.5,5.5,2.5,8.6c0,4.9-2.4,8.8-7.1,11.8c-3.9,2.5-8.6,3.8-14.2,3.8c-6.3,0-11.8-1.4-16.7-4.2c-1.4-0.9-2.4-1.6-2.9-2.1
				c-0.5-0.5-0.8-1.1-0.8-1.8C452.7,166.7,453.3,166.1,454.6,166z"/>
		</g>
		<text transform="matrix(1 0 0 1 83.7778 174.834)" class="st12 st4 st5">Viagens </text>
	</g>
	<path class="st20" d="M-19.1,112.5"/>
	<path class="st20" d="M-2.2,101.1"/>
	<path class="st21" d="M376.2,41.9c0,0,21.6-33.3,19.2-66.6s-18-31.4-3.6-70.5c14.4-39.1-7.3-65.1-19.2-44.4
		c-7.8,13.5,15,18.4-24,52.6c-29.8,26.2-30,60.4-39,76.8s-14.4,23.2-14.4,23.2L376.2,41.9z"/>
	<path class="st21" d="M204.6,176.1c0,0-33.1,22-44.1,53.5c-11,31.5,4,36-24.7,66.1c-28.8,30.2-26.9,46.9-7.7,32.7
		c12.5-9.3,1.2-7.1,50.6-23.1c37.7-12.2,51.5-43.5,66.3-55s22.4-15.5,22.4-15.5L204.6,176.1z"/>
	<path class="st22" d="M387.8,20.9c42.8,26.3-6.9,44.3-22.6,50.1c-13.3,4.9-7,2.6-10.5,44.2v28L201.8,69.7c0,0-1.7-11.2,18.7-14.2
		c20.5-3,16.1-3.6,24-3.3c6.8,0.3,14.8,10.5,20-4S266.3,3.8,278-5.4s30.5,7.6,39.6,12.9c9.1,5.3,16.1,11.9,32.2,9.9
		C366,15.3,384.6,19,387.8,20.9z"/>
	<path class="st23" d="M250.7,218.7c25.1,19.4,27.7,36.7,18.2,41.4c-8,4-8.9-4.3-18,20.4c-2.3,6.4-14.1,15.8-20.4,18
		c-6.4,2.3-22.2,2.6-28.2-0.6c-10.3-5.5-28.4-20.2-39.5-23.8c-8-2.6-24-16-24-16s-15.7-16.4-5.4-24.4c11.9-9.3,10-15.3,15-15.6
		c4.3-0.3,18.9,17,21.2,7.5c2.3-9.5,3.7-23.1,10.5-29.7c6.7-6.6,21.2,5.7,41.7,8.8C231.9,206.2,238.6,209.3,250.7,218.7z"/>
	<path class="st21" d="M97.4,206.9c0,0,35.1,29.4,52.8,35.2c24.5,8,91.2,11.2,113.9,23.4c13.3,7.1,23,15.8,37.2,10.8
		c13.8-4.9,14.4-29.6,14.4-29.6c-0.4-15.5,0.1-24.8,1.5-30.3c1.6-6.4,4.3-7.5,7.9-7.1c4.7,0.5,11,3.3,18.4-0.3
		c20.8-10.4,55.7-46.3,0.3-89c-26.8-20.6-41.5-27.4-63.8-30.8c-45.2-6.8-77.1-33.9-91.9-19.3s-18,44.6-23,65.5
		c-5,20.9-18.1,30.9-27.6,31.6c-10.9,0.7-8.4-7.5-34.7,13C80.1,197.6,97.4,206.9,97.4,206.9z"/>
	<path class="st24" d="M154.2,190.5c-9.7,16.8-4.4,24.4-1,26.4s3.7-2.4,13.4-19.2c9.7-16.8,8-19.6,4.6-21.6
		C167.8,174.2,163.9,173.7,154.2,190.5z"/>
	<path class="st24" d="M171.5,202.1c-6.8,11.8-3.1,17.2-0.7,18.6c2.4,1.4,2.6-1.7,9.4-13.5c6.8-11.8,5.6-13.8,3.2-15.2
		S178.3,190.3,171.5,202.1z"/>
	<path class="st24" d="M182.3,216.6c-7.9,13.6-3.6,19.8-0.8,21.4s3-1.9,10.9-15.6c7.9-13.6,6.5-15.9,3.7-17.5
		C193.3,203.3,190.1,203,182.3,216.6z"/>
	<path class="st24" d="M386.8,56.9c13.1-8.7,12-16.1,10.3-18.8c-1.8-2.7-3.6,0.4-16.7,9.1c-13.1,8.7-12.9,11.3-11.1,14
		C371,63.9,373.7,65.6,386.8,56.9z"/>
	<path class="st24" d="M246.9,72.4c-14.7-5.7-18.7-4.1-19.2-2.8s2.7,1.8,17.4,7.5c14.7,5.7,16.2,5.2,16.7,3.9S261.6,78,246.9,72.4z"
		/>
	<path class="st24" d="M375-135c-1.6,7.6,1,10.1,2,10.3c1,0.2-1.8-1.5-0.2-9.1s3.7-8.2,2.7-8.4C378.5-142.5,376.7-142.6,375-135z"/>
	<path class="st24" d="M390.6-32.5c-2.5-15.5-8.4-17.5-9.7-17.3s3.1,1.8,5.5,17.3c2.5,15.5,1.2,19.2,1.8,17.9
		C389.4-17.5,393.1-17,390.6-32.5z"/>
	<path class="st24" d="M261,73.4c-7-2.7-8.9-2-9.1-1.3c-0.2,0.6,1.3,0.9,8.3,3.5c7,2.7,7.7,2.5,8,1.9C268.3,76.9,268,76.1,261,73.4z
		"/>
	<path class="st24" d="M295.9,198.3c2.4,7.2,2.5,8.4,11.7,15.7c2.1,1.7,5.9,2.4,9.7,2.4c1.6-6.4,4.3-7.5,7.9-7.1
		c-2.6-1.2-6.6-2.9-12.4-5.7C298.7,196.6,294.9,195.3,295.9,198.3z"/>
	<path class="st24" d="M199.6,290.8c13.6,7.8,17.8,6.9,18.5,5.7s-2.4-2.2-16.1-10c-13.6-7.8-15.2-7.6-15.9-6.4
		C185.5,281.3,186,282.9,199.6,290.8z"/>
	<path class="st24" d="M211.5,288.6c6.2,3.6,8.2,3.2,8.5,2.6s-1.1-1-7.3-4.6c-6.2-3.6-7-3.5-7.3-2.9
		C205.1,284.3,205.3,285.1,211.5,288.6z"/>
	<path class="st24" d="M121.2,320.4c-3.7,6.2-3.3,8.1-2.8,8.4c0.5,0.3,1-1.1,4.7-7.3c3.7-6.2,3.6-6.9,3.1-7.2
		C125.7,314.1,124.9,314.3,121.2,320.4z"/>
</g>
</svg>
